<svg xmlns="http://www.w3.org/2000/svg" xmlns:xlink="http://www.w3.org/1999/xlink" width="196" height="65.984" viewBox="0 0 196 65.984"><defs><style>.a{fill:none;}.b{clip-path:url(#a);}.c{fill:#fff;}.d{fill:#201e1c;}.e{fill:#006fb1;}.f{fill:#fcc41d;}.g{fill:#50a13b;}.h{fill:#e04422;}</style><clipPath id="a"><rect class="a" width="196" height="65.984"/></clipPath></defs><g transform="translate(98 32.992)"><g class="b" transform="translate(-98 -32.992)"><path class="c" d="M65.978,33.189A32.589,32.589,0,1,0,33.389,65.778,32.589,32.589,0,0,0,65.978,33.189" transform="translate(-0.428 -0.321)"/><path class="d" d="M103.4,55.144a2,2,0,0,0-.745.186.978.978,0,1,1-1.071,1.164,1.956,1.956,0,0,0-.093.745A2.048,2.048,0,1,0,103.45,55.1" transform="translate(-54.241 -29.445)"/><path class="e" d="M89.241,83.872a12.124,12.124,0,0,1-8.054-.372c.838,2.886-2.886,5.913-2.886,5.913s6.844-1.071,10.941-5.54" transform="translate(-41.847 -44.626)"/><path class="f" d="M17.912,31.641c2.142-2.84,5.726-5.028,11.22-5.4s13.082,1.21,23.092,5.913c0,0,.931,5.121-3.212,12.058,0,0-6.238-3.771-16.341-3.818a42.132,42.132,0,0,0-6.983.559l-2.654.512a5.334,5.334,0,0,0-5.075,4.749c-2.933-.885-4.283-8.939-.047-14.572" transform="translate(-8.135 -13.996)"/><path class="g" d="M15.2,39.743s-.047-20.624,28.678-10.987c0,0-.047,4.05-6.285,2.142,0,0-17.133-7.5-21.742,8.659-.093.372-.466.186-.652.186" transform="translate(-8.124 -13.997)"/><path class="d" d="M21.111,57.189a5.229,5.229,0,0,0-5.913-2.1s-.14,5.4,2.747,6.425a5.214,5.214,0,0,1,3.166-4.283" transform="translate(-8.122 -29.302)"/><path class="h" d="M49.8,54.364s10.335-4.143,12.617-.605c0,0,1.024,1.955-1.35,1.909,0,0-3.771-1.4-11.267-1.3" transform="translate(-26.615 -27.967)"/><path class="h" d="M52.756,63.727C36.182,60.7,28.5,67.684,28.5,67.684a46.5,46.5,0,0,1,23.511-.7h.559l.186-.093c2.84-1.49,3.166-2.7,3.166-2.7L52.8,63.541" transform="translate(-15.232 -33.652)"/><path class="d" d="M80.226,67.845c2.84-1.49,3.166-2.7,3.166-2.7L79.9,64.4a4.738,4.738,0,0,1,.186,3.538h0l.186-.093" transform="translate(-42.702 -34.418)"/><path class="d" d="M99.076,53.338S98.75,40.023,86.134,38.626a3.166,3.166,0,0,1-1.071-.326s-1.49,9.171-6.1,10.8l3.492,1.583a20.124,20.124,0,0,0,3.305-10.708s9.544,1.769,9.87,11.453c0,0,.372,8.8-11.22,12.943l-4.143,1.4v.186A30.727,30.727,0,0,1,77.8,84.483,31.146,31.146,0,0,0,100.054,71.4a78.4,78.4,0,0,0-.978-18.064" transform="translate(-41.58 -20.469)"/><path class="d" d="M54.261,104.844A26.118,26.118,0,0,0,49,114.853a31.1,31.1,0,0,0,10.149,1.676l2.142-.093A30.075,30.075,0,0,0,63.944,98a21.639,21.639,0,0,0-9.684,6.8" transform="translate(-26.188 -52.375)"/><path class="e" d="M33.014,1.816a31.146,31.146,0,1,1-22.07,9.122,31.146,31.146,0,0,1,22.07-9.122m0-1.816A33.008,33.008,0,1,0,45.864,2.6,33.008,33.008,0,0,0,33.014,0" transform="translate(-0.006 0)"/><path class="e" d="M183.425,21.7v3.864h-7.5V28.4h6.844v3.864H175.93v5.866H171.6V21.7Z" transform="translate(-91.71 -11.597)"/><path class="e" d="M212.1,38.134V21.7h6.937c3.352,0,6.751,1.21,6.751,5.54a4.852,4.852,0,0,1-3.166,4.935l4.563,5.959h-4.935l-3.911-5.354h-1.862v5.354Zm4.33-8.892h2.793a1.917,1.917,0,1,0,0-3.818H216.43Z" transform="translate(-113.355 -11.597)"/><path class="e" d="M269.925,21.7v3.724h-7.5v2.514h6.8v3.724h-6.8v2.7h7.635v3.771H258.1V21.7Z" transform="translate(-137.939 -11.597)"/><path class="e" d="M305.864,21.7c5.866,0,8.613,3.445,8.613,8.24s-2.747,8.194-8.613,8.194H299.3V21.7Zm0,3.771h-2.188v8.892h2.188c2.607,0,4.143-1.4,4.143-4.469s-1.536-4.469-4.143-4.469" transform="translate(-159.958 -11.597)"/><path class="e" d="M347.125,38.134V32.5L340.7,21.7h4.935l3.631,6.751,3.678-6.751h4.935l-6.425,10.8v5.633Z" transform="translate(-182.084 -11.597)"/><path class="e" d="M399.192,20.9a11.546,11.546,0,0,1,5.54,1.3v4a8.473,8.473,0,0,0-5.168-1.536c-1.583.047-2.1.466-2.1,1.071,0,2.142,8.566,1.49,8.566,7.309,0,3.911-2.98,5.028-6.564,5.028a13.175,13.175,0,0,1-6.332-1.49V32.444a10.615,10.615,0,0,0,6.006,1.862c1.723,0,2.421-.279,2.421-1.117,0-2.374-8.566-1.583-8.566-7.449,0-3.305,2.84-4.842,6.192-4.842" transform="translate(-210.036 -11.168)"/><path class="e" d="M382.057,20h3.352l-2.048,5.494H380.8Z" transform="translate(-203.515 -10.689)"/><path class="e" d="M187.336,80.1v4.469h-5.354V99.095h-5.028V84.569H171.6V80.1Z" transform="translate(-91.71 -42.809)"/><path class="e" d="M240.733,80.1V91.832c0,5.726-4.33,7.635-8.566,7.635s-8.566-1.909-8.566-7.635V80.1h5.028V91.6c0,2.561,1.4,3.445,3.538,3.445S235.7,94.16,235.7,91.6V80.1Z" transform="translate(-119.501 -42.809)"/><path class="e" d="M288.689,79.2a12.989,12.989,0,0,1,5.494,1.21v4.749a7.4,7.4,0,0,0-4.656-1.536c-3.026,0-6.006,1.676-6.006,5.773s2.98,5.214,5.959,5.214a7.019,7.019,0,0,0,4.842-1.676v4.888a12.849,12.849,0,0,1-5.54,1.21c-5.214,0-10.382-2.84-10.382-9.637s5.168-10.2,10.289-10.2" transform="translate(-148.789 -42.328)"/><path class="e" d="M384.3,99.095V80.1h4.749L396.5,90.994c-.093-.885-.093-2.1-.093-3.166V80.1h4.981V99.095h-4.749L389.188,88.2c.093.885.093,2.1.093,3.119v7.775Z" transform="translate(-205.386 -42.809)"/><path class="e" d="M327.2,99.095,334.649,80.1H340.1l7.449,18.995h-5.121l-1.071-2.98h-7.915l-1.071,2.98Zm7.728-7.076h4.888l-1.955-5.447a9.543,9.543,0,0,1-.466-1.909,9.545,9.545,0,0,1-.466,1.909Z" transform="translate(-174.869 -42.809)"/><path class="e" d="M348.976,71.85H344.6l2.467-4.05h4.888Z" transform="translate(-184.169 -36.235)"/></g></g></svg>